<svg _ngcontent-ng-c3674483168="" viewBox="0 0 24 24" fill="currentColor" xmlns="http://www.w3.org/2000/svg" class="contact-card-icon"><path _ngcontent-ng-c3674483168="" d="M12.012 2c-5.506 0-9.988 4.482-9.988 9.988 0 1.76.459 3.473 1.332 4.988L2 22l5.179-1.36c1.47.8 3.125 1.22 4.821 1.22h.012c5.506 0 9.989-4.482 9.989-9.988C22 6.482 17.518 2 12.012 2zm6.273 14.171c-.259.73-1.498 1.429-2.072 1.503-.518.067-1.196.111-3.4-.766-2.821-1.119-4.636-3.993-4.777-4.185-.14-.193-1.141-1.52-1.141-2.906 0-1.386.726-2.072.985-2.35.259-.278.571-.349.763-.349.192 0 .385.004.551.012.17.008.4-.067.626.489.23.57.785 1.928.852 2.069.067.14.111.304.015.497-.096.193-.148.312-.296.482-.148.17-.312.382-.445.512-.148.14-.304.296-.134.593.17.297.756 1.253 1.623 2.031.923.823 1.701 1.079 2.031 1.216.33.137.523.115.719-.111.196-.226.852-.993 1.079-1.334.226-.341.456-.282.767-.167.311.115 1.971.93 2.308 1.097.337.167.563.248.644.389.081.14.081.812-.178 1.542z"/></svg>